<mxfile host="app.diagrams.net" modified="2024-07-21T16:14:54.638Z" agent="Mozilla/5.0 (Windows NT 10.0; Win64; x64) AppleWebKit/537.36 (KHTML, like Gecko) Chrome/126.0.0.0 Safari/537.36" etag="b5yysDP_myJrrj4slUOd" version="24.7.1" type="github">
  <diagram name="Page-1" id="t7fW4EhFJDkVseJklb_I">
    <mxGraphModel dx="1372" dy="820" grid="1" gridSize="10" guides="1" tooltips="1" connect="1" arrows="1" fold="1" page="1" pageScale="1" pageWidth="850" pageHeight="1100" math="0" shadow="0">
      <root>
        <mxCell id="0" />
        <mxCell id="1" parent="0" />
        <mxCell id="t8I03dT7hKqpesx-KWNK-2" value="" style="ellipse;whiteSpace=wrap;html=1;aspect=fixed;gradientColor=#4D4D4D;fillColor=default;gradientDirection=radial;shadow=0;strokeColor=none;" vertex="1" parent="1">
          <mxGeometry x="176" y="400" width="30" height="30" as="geometry" />
        </mxCell>
        <mxCell id="t8I03dT7hKqpesx-KWNK-7" value="" style="ellipse;whiteSpace=wrap;html=1;aspect=fixed;gradientColor=#4D4D4D;fillColor=default;gradientDirection=radial;shadow=0;strokeColor=none;" vertex="1" parent="1">
          <mxGeometry x="453" y="460" width="30" height="30" as="geometry" />
        </mxCell>
        <mxCell id="t8I03dT7hKqpesx-KWNK-8" value="" style="ellipse;whiteSpace=wrap;html=1;aspect=fixed;gradientColor=#4D4D4D;fillColor=default;gradientDirection=radial;shadow=0;strokeColor=none;" vertex="1" parent="1">
          <mxGeometry x="453" y="400" width="30" height="30" as="geometry" />
        </mxCell>
        <mxCell id="t8I03dT7hKqpesx-KWNK-9" value="" style="ellipse;whiteSpace=wrap;html=1;aspect=fixed;fillColor=#ffe6cc;gradientDirection=radial;shadow=0;strokeColor=#994C00;gradientColor=#CC6600;" vertex="1" parent="1">
          <mxGeometry x="360" y="480" width="30" height="30" as="geometry" />
        </mxCell>
        <mxCell id="t8I03dT7hKqpesx-KWNK-10" value="" style="ellipse;whiteSpace=wrap;html=1;aspect=fixed;fillColor=#ffe6cc;gradientDirection=radial;shadow=0;strokeColor=#994C00;gradientColor=#CC6600;" vertex="1" parent="1">
          <mxGeometry x="360" y="420" width="30" height="30" as="geometry" />
        </mxCell>
        <mxCell id="t8I03dT7hKqpesx-KWNK-11" value="" style="ellipse;whiteSpace=wrap;html=1;aspect=fixed;fillColor=#ffe6cc;gradientDirection=radial;shadow=0;strokeColor=#994C00;gradientColor=#CC6600;" vertex="1" parent="1">
          <mxGeometry x="360" y="360" width="30" height="30" as="geometry" />
        </mxCell>
        <mxCell id="t8I03dT7hKqpesx-KWNK-12" value="" style="ellipse;whiteSpace=wrap;html=1;aspect=fixed;fillColor=#d5e8d4;gradientDirection=radial;shadow=0;strokeColor=#82b366;gradientColor=#336600;align=center;verticalAlign=middle;fontFamily=Helvetica;fontSize=12;fontColor=default;" vertex="1" parent="1">
          <mxGeometry x="270" y="460" width="30" height="30" as="geometry" />
        </mxCell>
        <mxCell id="t8I03dT7hKqpesx-KWNK-13" value="" style="ellipse;whiteSpace=wrap;html=1;aspect=fixed;fillColor=#d5e8d4;gradientDirection=radial;shadow=0;strokeColor=#82b366;gradientColor=#336600;" vertex="1" parent="1">
          <mxGeometry x="270" y="400" width="30" height="30" as="geometry" />
        </mxCell>
        <mxCell id="t8I03dT7hKqpesx-KWNK-15" value="" style="ellipse;whiteSpace=wrap;html=1;aspect=fixed;gradientColor=#4D4D4D;fillColor=default;gradientDirection=radial;shadow=0;strokeColor=none;" vertex="1" parent="1">
          <mxGeometry x="176" y="460" width="30" height="30" as="geometry" />
        </mxCell>
        <mxCell id="t8I03dT7hKqpesx-KWNK-34" value="" style="endArrow=none;html=1;rounded=0;exitX=1;exitY=0;exitDx=0;exitDy=0;" edge="1" parent="1" source="t8I03dT7hKqpesx-KWNK-13">
          <mxGeometry width="50" height="50" relative="1" as="geometry">
            <mxPoint x="300" y="420" as="sourcePoint" />
            <mxPoint x="360" y="382" as="targetPoint" />
          </mxGeometry>
        </mxCell>
        <mxCell id="t8I03dT7hKqpesx-KWNK-35" value="" style="endArrow=none;html=1;rounded=0;entryX=0;entryY=0.667;entryDx=0;entryDy=0;exitX=1;exitY=0.333;exitDx=0;exitDy=0;exitPerimeter=0;entryPerimeter=0;" edge="1" parent="1" source="t8I03dT7hKqpesx-KWNK-12" target="t8I03dT7hKqpesx-KWNK-10">
          <mxGeometry width="50" height="50" relative="1" as="geometry">
            <mxPoint x="290" y="470" as="sourcePoint" />
            <mxPoint x="360" y="430" as="targetPoint" />
          </mxGeometry>
        </mxCell>
        <mxCell id="t8I03dT7hKqpesx-KWNK-38" value="" style="endArrow=none;html=1;rounded=0;entryX=0;entryY=0.5;entryDx=0;entryDy=0;exitX=1;exitY=0.5;exitDx=0;exitDy=0;" edge="1" parent="1" source="t8I03dT7hKqpesx-KWNK-12" target="t8I03dT7hKqpesx-KWNK-9">
          <mxGeometry width="50" height="50" relative="1" as="geometry">
            <mxPoint x="306" y="474" as="sourcePoint" />
            <mxPoint x="374" y="456" as="targetPoint" />
          </mxGeometry>
        </mxCell>
        <mxCell id="t8I03dT7hKqpesx-KWNK-39" value="" style="endArrow=none;html=1;rounded=0;entryX=0;entryY=0.5;entryDx=0;entryDy=0;exitX=1;exitY=0.5;exitDx=0;exitDy=0;" edge="1" parent="1" source="t8I03dT7hKqpesx-KWNK-13">
          <mxGeometry width="50" height="50" relative="1" as="geometry">
            <mxPoint x="290" y="420" as="sourcePoint" />
            <mxPoint x="360" y="434" as="targetPoint" />
          </mxGeometry>
        </mxCell>
        <mxCell id="t8I03dT7hKqpesx-KWNK-40" value="" style="endArrow=none;html=1;rounded=0;entryX=0;entryY=0;entryDx=0;entryDy=0;exitX=1;exitY=1;exitDx=0;exitDy=0;" edge="1" parent="1" source="t8I03dT7hKqpesx-KWNK-13" target="t8I03dT7hKqpesx-KWNK-9">
          <mxGeometry width="50" height="50" relative="1" as="geometry">
            <mxPoint x="300" y="430" as="sourcePoint" />
            <mxPoint x="350" y="444" as="targetPoint" />
          </mxGeometry>
        </mxCell>
        <mxCell id="t8I03dT7hKqpesx-KWNK-41" value="" style="endArrow=none;html=1;rounded=0;entryX=0;entryY=1;entryDx=0;entryDy=0;exitX=1;exitY=0;exitDx=0;exitDy=0;" edge="1" parent="1" source="t8I03dT7hKqpesx-KWNK-12" target="t8I03dT7hKqpesx-KWNK-11">
          <mxGeometry width="50" height="50" relative="1" as="geometry">
            <mxPoint x="290" y="470" as="sourcePoint" />
            <mxPoint x="354" y="431" as="targetPoint" />
          </mxGeometry>
        </mxCell>
        <mxCell id="t8I03dT7hKqpesx-KWNK-42" value="&lt;font style=&quot;font-size: 24px;&quot;&gt;&lt;b&gt;...&lt;/b&gt;&lt;/font&gt;" style="text;html=1;align=center;verticalAlign=middle;whiteSpace=wrap;rounded=0;" vertex="1" parent="1">
          <mxGeometry x="217" y="421" width="40" height="30" as="geometry" />
        </mxCell>
        <mxCell id="t8I03dT7hKqpesx-KWNK-43" value="&lt;font style=&quot;font-size: 24px;&quot;&gt;&lt;b&gt;...&lt;/b&gt;&lt;/font&gt;" style="text;html=1;align=center;verticalAlign=middle;whiteSpace=wrap;rounded=0;" vertex="1" parent="1">
          <mxGeometry x="406" y="420" width="40" height="30" as="geometry" />
        </mxCell>
        <mxCell id="t8I03dT7hKqpesx-KWNK-44" value="" style="ellipse;whiteSpace=wrap;html=1;aspect=fixed;gradientColor=#4D4D4D;fillColor=default;gradientDirection=radial;shadow=0;strokeColor=none;" vertex="1" parent="1">
          <mxGeometry x="186" y="598" width="30" height="30" as="geometry" />
        </mxCell>
        <mxCell id="t8I03dT7hKqpesx-KWNK-45" value="" style="ellipse;whiteSpace=wrap;html=1;aspect=fixed;gradientColor=#4D4D4D;fillColor=default;gradientDirection=radial;shadow=0;strokeColor=none;" vertex="1" parent="1">
          <mxGeometry x="463" y="658" width="30" height="30" as="geometry" />
        </mxCell>
        <mxCell id="t8I03dT7hKqpesx-KWNK-46" value="" style="ellipse;whiteSpace=wrap;html=1;aspect=fixed;gradientColor=#4D4D4D;fillColor=default;gradientDirection=radial;shadow=0;strokeColor=none;" vertex="1" parent="1">
          <mxGeometry x="463" y="598" width="30" height="30" as="geometry" />
        </mxCell>
        <mxCell id="t8I03dT7hKqpesx-KWNK-47" value="" style="ellipse;whiteSpace=wrap;html=1;aspect=fixed;gradientColor=#336600;fillColor=#d5e8d4;gradientDirection=radial;shadow=0;strokeColor=#82b366;align=center;verticalAlign=middle;fontFamily=Helvetica;fontSize=12;fontColor=default;" vertex="1" parent="1">
          <mxGeometry x="370" y="678" width="30" height="30" as="geometry" />
        </mxCell>
        <mxCell id="t8I03dT7hKqpesx-KWNK-48" value="" style="ellipse;whiteSpace=wrap;html=1;aspect=fixed;gradientColor=#336600;fillColor=#d5e8d4;gradientDirection=radial;shadow=0;strokeColor=#82b366;align=center;verticalAlign=middle;fontFamily=Helvetica;fontSize=12;fontColor=default;" vertex="1" parent="1">
          <mxGeometry x="370" y="618" width="30" height="30" as="geometry" />
        </mxCell>
        <mxCell id="t8I03dT7hKqpesx-KWNK-49" value="" style="ellipse;whiteSpace=wrap;html=1;aspect=fixed;gradientColor=#336600;fillColor=#d5e8d4;gradientDirection=radial;shadow=0;strokeColor=#82b366;align=center;verticalAlign=middle;fontFamily=Helvetica;fontSize=12;fontColor=default;" vertex="1" parent="1">
          <mxGeometry x="370" y="558" width="30" height="30" as="geometry" />
        </mxCell>
        <mxCell id="t8I03dT7hKqpesx-KWNK-50" value="" style="ellipse;whiteSpace=wrap;html=1;aspect=fixed;gradientColor=#336600;fillColor=#d5e8d4;gradientDirection=radial;shadow=0;strokeColor=#82b366;align=center;verticalAlign=middle;fontFamily=Helvetica;fontSize=12;fontColor=default;" vertex="1" parent="1">
          <mxGeometry x="280" y="658" width="30" height="30" as="geometry" />
        </mxCell>
        <mxCell id="t8I03dT7hKqpesx-KWNK-51" value="" style="ellipse;whiteSpace=wrap;html=1;aspect=fixed;gradientColor=#336600;fillColor=#d5e8d4;gradientDirection=radial;shadow=0;strokeColor=#82b366;align=center;verticalAlign=middle;fontFamily=Helvetica;fontSize=12;fontColor=default;" vertex="1" parent="1">
          <mxGeometry x="280" y="598" width="30" height="30" as="geometry" />
        </mxCell>
        <mxCell id="t8I03dT7hKqpesx-KWNK-52" value="" style="ellipse;whiteSpace=wrap;html=1;aspect=fixed;gradientColor=#4D4D4D;fillColor=default;gradientDirection=radial;shadow=0;strokeColor=none;" vertex="1" parent="1">
          <mxGeometry x="186" y="658" width="30" height="30" as="geometry" />
        </mxCell>
        <mxCell id="t8I03dT7hKqpesx-KWNK-53" value="" style="endArrow=none;html=1;rounded=0;exitX=1;exitY=0;exitDx=0;exitDy=0;" edge="1" parent="1" source="t8I03dT7hKqpesx-KWNK-51">
          <mxGeometry width="50" height="50" relative="1" as="geometry">
            <mxPoint x="310" y="618" as="sourcePoint" />
            <mxPoint x="370" y="580" as="targetPoint" />
          </mxGeometry>
        </mxCell>
        <mxCell id="t8I03dT7hKqpesx-KWNK-54" value="" style="endArrow=none;html=1;rounded=0;entryX=0;entryY=0.667;entryDx=0;entryDy=0;exitX=1;exitY=0.333;exitDx=0;exitDy=0;exitPerimeter=0;entryPerimeter=0;" edge="1" parent="1" source="t8I03dT7hKqpesx-KWNK-50" target="t8I03dT7hKqpesx-KWNK-48">
          <mxGeometry width="50" height="50" relative="1" as="geometry">
            <mxPoint x="300" y="668" as="sourcePoint" />
            <mxPoint x="370" y="628" as="targetPoint" />
          </mxGeometry>
        </mxCell>
        <mxCell id="t8I03dT7hKqpesx-KWNK-55" value="" style="endArrow=none;html=1;rounded=0;entryX=0;entryY=0.5;entryDx=0;entryDy=0;exitX=1;exitY=0.5;exitDx=0;exitDy=0;" edge="1" parent="1" source="t8I03dT7hKqpesx-KWNK-50" target="t8I03dT7hKqpesx-KWNK-47">
          <mxGeometry width="50" height="50" relative="1" as="geometry">
            <mxPoint x="316" y="672" as="sourcePoint" />
            <mxPoint x="384" y="654" as="targetPoint" />
          </mxGeometry>
        </mxCell>
        <mxCell id="t8I03dT7hKqpesx-KWNK-56" value="" style="endArrow=none;html=1;rounded=0;entryX=0;entryY=0.5;entryDx=0;entryDy=0;exitX=1;exitY=0.5;exitDx=0;exitDy=0;" edge="1" parent="1" source="t8I03dT7hKqpesx-KWNK-51">
          <mxGeometry width="50" height="50" relative="1" as="geometry">
            <mxPoint x="300" y="618" as="sourcePoint" />
            <mxPoint x="370" y="632" as="targetPoint" />
          </mxGeometry>
        </mxCell>
        <mxCell id="t8I03dT7hKqpesx-KWNK-57" value="" style="endArrow=none;html=1;rounded=0;entryX=0;entryY=0;entryDx=0;entryDy=0;exitX=1;exitY=1;exitDx=0;exitDy=0;" edge="1" parent="1" source="t8I03dT7hKqpesx-KWNK-51" target="t8I03dT7hKqpesx-KWNK-47">
          <mxGeometry width="50" height="50" relative="1" as="geometry">
            <mxPoint x="310" y="628" as="sourcePoint" />
            <mxPoint x="360" y="642" as="targetPoint" />
          </mxGeometry>
        </mxCell>
        <mxCell id="t8I03dT7hKqpesx-KWNK-58" value="" style="endArrow=none;html=1;rounded=0;entryX=0;entryY=1;entryDx=0;entryDy=0;exitX=1;exitY=0;exitDx=0;exitDy=0;" edge="1" parent="1" source="t8I03dT7hKqpesx-KWNK-50" target="t8I03dT7hKqpesx-KWNK-49">
          <mxGeometry width="50" height="50" relative="1" as="geometry">
            <mxPoint x="300" y="668" as="sourcePoint" />
            <mxPoint x="364" y="629" as="targetPoint" />
          </mxGeometry>
        </mxCell>
        <mxCell id="t8I03dT7hKqpesx-KWNK-59" value="&lt;font style=&quot;font-size: 24px;&quot;&gt;&lt;b&gt;...&lt;/b&gt;&lt;/font&gt;" style="text;html=1;align=center;verticalAlign=middle;whiteSpace=wrap;rounded=0;" vertex="1" parent="1">
          <mxGeometry x="227" y="619" width="40" height="30" as="geometry" />
        </mxCell>
        <mxCell id="t8I03dT7hKqpesx-KWNK-60" value="&lt;font style=&quot;font-size: 24px;&quot;&gt;&lt;b&gt;...&lt;/b&gt;&lt;/font&gt;" style="text;html=1;align=center;verticalAlign=middle;whiteSpace=wrap;rounded=0;" vertex="1" parent="1">
          <mxGeometry x="416" y="618" width="40" height="30" as="geometry" />
        </mxCell>
        <mxCell id="t8I03dT7hKqpesx-KWNK-61" value="" style="ellipse;whiteSpace=wrap;html=1;aspect=fixed;gradientColor=#4D4D4D;fillColor=default;gradientDirection=radial;shadow=0;strokeColor=none;" vertex="1" parent="1">
          <mxGeometry x="186" y="810" width="30" height="30" as="geometry" />
        </mxCell>
        <mxCell id="t8I03dT7hKqpesx-KWNK-62" value="" style="ellipse;whiteSpace=wrap;html=1;aspect=fixed;gradientColor=#4D4D4D;fillColor=default;gradientDirection=radial;shadow=0;strokeColor=none;" vertex="1" parent="1">
          <mxGeometry x="463" y="870" width="30" height="30" as="geometry" />
        </mxCell>
        <mxCell id="t8I03dT7hKqpesx-KWNK-63" value="" style="ellipse;whiteSpace=wrap;html=1;aspect=fixed;gradientColor=#4D4D4D;fillColor=default;gradientDirection=radial;shadow=0;strokeColor=none;" vertex="1" parent="1">
          <mxGeometry x="463" y="810" width="30" height="30" as="geometry" />
        </mxCell>
        <mxCell id="t8I03dT7hKqpesx-KWNK-64" value="" style="ellipse;whiteSpace=wrap;html=1;aspect=fixed;gradientColor=#336600;fillColor=#d5e8d4;gradientDirection=radial;shadow=0;strokeColor=#82b366;align=center;verticalAlign=middle;fontFamily=Helvetica;fontSize=12;fontColor=default;" vertex="1" parent="1">
          <mxGeometry x="370" y="890" width="30" height="30" as="geometry" />
        </mxCell>
        <mxCell id="t8I03dT7hKqpesx-KWNK-65" value="" style="ellipse;whiteSpace=wrap;html=1;aspect=fixed;gradientColor=#336600;fillColor=#d5e8d4;gradientDirection=radial;shadow=0;strokeColor=#82b366;align=center;verticalAlign=middle;fontFamily=Helvetica;fontSize=12;fontColor=default;" vertex="1" parent="1">
          <mxGeometry x="370" y="830" width="30" height="30" as="geometry" />
        </mxCell>
        <mxCell id="t8I03dT7hKqpesx-KWNK-66" value="" style="ellipse;whiteSpace=wrap;html=1;aspect=fixed;gradientColor=#336600;fillColor=#d5e8d4;gradientDirection=radial;shadow=0;strokeColor=#82b366;align=center;verticalAlign=middle;fontFamily=Helvetica;fontSize=12;fontColor=default;" vertex="1" parent="1">
          <mxGeometry x="370" y="770" width="30" height="30" as="geometry" />
        </mxCell>
        <mxCell id="t8I03dT7hKqpesx-KWNK-67" value="" style="ellipse;whiteSpace=wrap;html=1;aspect=fixed;gradientColor=#4D4D4D;fillColor=default;gradientDirection=radial;shadow=0;strokeColor=none;" vertex="1" parent="1">
          <mxGeometry x="280" y="870" width="30" height="30" as="geometry" />
        </mxCell>
        <mxCell id="t8I03dT7hKqpesx-KWNK-68" value="" style="ellipse;whiteSpace=wrap;html=1;aspect=fixed;gradientColor=#4D4D4D;fillColor=default;gradientDirection=radial;shadow=0;strokeColor=none;" vertex="1" parent="1">
          <mxGeometry x="280" y="810" width="30" height="30" as="geometry" />
        </mxCell>
        <mxCell id="t8I03dT7hKqpesx-KWNK-69" value="" style="ellipse;whiteSpace=wrap;html=1;aspect=fixed;gradientColor=#4D4D4D;fillColor=default;gradientDirection=radial;shadow=0;strokeColor=none;" vertex="1" parent="1">
          <mxGeometry x="186" y="870" width="30" height="30" as="geometry" />
        </mxCell>
        <mxCell id="t8I03dT7hKqpesx-KWNK-70" value="" style="endArrow=none;html=1;rounded=0;exitX=1;exitY=0;exitDx=0;exitDy=0;" edge="1" parent="1" source="t8I03dT7hKqpesx-KWNK-68">
          <mxGeometry width="50" height="50" relative="1" as="geometry">
            <mxPoint x="310" y="830" as="sourcePoint" />
            <mxPoint x="370" y="792" as="targetPoint" />
          </mxGeometry>
        </mxCell>
        <mxCell id="t8I03dT7hKqpesx-KWNK-71" value="" style="endArrow=none;html=1;rounded=0;entryX=0;entryY=0.667;entryDx=0;entryDy=0;exitX=1;exitY=0.333;exitDx=0;exitDy=0;exitPerimeter=0;entryPerimeter=0;" edge="1" parent="1" source="t8I03dT7hKqpesx-KWNK-67" target="t8I03dT7hKqpesx-KWNK-65">
          <mxGeometry width="50" height="50" relative="1" as="geometry">
            <mxPoint x="300" y="880" as="sourcePoint" />
            <mxPoint x="370" y="840" as="targetPoint" />
          </mxGeometry>
        </mxCell>
        <mxCell id="t8I03dT7hKqpesx-KWNK-72" value="" style="endArrow=none;html=1;rounded=0;entryX=0;entryY=0.5;entryDx=0;entryDy=0;exitX=1;exitY=0.5;exitDx=0;exitDy=0;" edge="1" parent="1" source="t8I03dT7hKqpesx-KWNK-67" target="t8I03dT7hKqpesx-KWNK-64">
          <mxGeometry width="50" height="50" relative="1" as="geometry">
            <mxPoint x="316" y="884" as="sourcePoint" />
            <mxPoint x="384" y="866" as="targetPoint" />
          </mxGeometry>
        </mxCell>
        <mxCell id="t8I03dT7hKqpesx-KWNK-73" value="" style="endArrow=none;html=1;rounded=0;entryX=0;entryY=0.5;entryDx=0;entryDy=0;exitX=1;exitY=0.5;exitDx=0;exitDy=0;" edge="1" parent="1" source="t8I03dT7hKqpesx-KWNK-68">
          <mxGeometry width="50" height="50" relative="1" as="geometry">
            <mxPoint x="300" y="830" as="sourcePoint" />
            <mxPoint x="370" y="844" as="targetPoint" />
          </mxGeometry>
        </mxCell>
        <mxCell id="t8I03dT7hKqpesx-KWNK-74" value="" style="endArrow=none;html=1;rounded=0;entryX=0;entryY=0;entryDx=0;entryDy=0;exitX=1;exitY=1;exitDx=0;exitDy=0;" edge="1" parent="1" source="t8I03dT7hKqpesx-KWNK-68" target="t8I03dT7hKqpesx-KWNK-64">
          <mxGeometry width="50" height="50" relative="1" as="geometry">
            <mxPoint x="310" y="840" as="sourcePoint" />
            <mxPoint x="360" y="854" as="targetPoint" />
          </mxGeometry>
        </mxCell>
        <mxCell id="t8I03dT7hKqpesx-KWNK-75" value="" style="endArrow=none;html=1;rounded=0;entryX=0;entryY=1;entryDx=0;entryDy=0;exitX=1;exitY=0;exitDx=0;exitDy=0;" edge="1" parent="1" source="t8I03dT7hKqpesx-KWNK-67" target="t8I03dT7hKqpesx-KWNK-66">
          <mxGeometry width="50" height="50" relative="1" as="geometry">
            <mxPoint x="300" y="880" as="sourcePoint" />
            <mxPoint x="364" y="841" as="targetPoint" />
          </mxGeometry>
        </mxCell>
        <mxCell id="t8I03dT7hKqpesx-KWNK-76" value="&lt;font style=&quot;font-size: 24px;&quot;&gt;&lt;b&gt;...&lt;/b&gt;&lt;/font&gt;" style="text;html=1;align=center;verticalAlign=middle;whiteSpace=wrap;rounded=0;" vertex="1" parent="1">
          <mxGeometry x="227" y="831" width="40" height="30" as="geometry" />
        </mxCell>
        <mxCell id="t8I03dT7hKqpesx-KWNK-77" value="&lt;font style=&quot;font-size: 24px;&quot;&gt;&lt;b&gt;...&lt;/b&gt;&lt;/font&gt;" style="text;html=1;align=center;verticalAlign=middle;whiteSpace=wrap;rounded=0;" vertex="1" parent="1">
          <mxGeometry x="416" y="830" width="40" height="30" as="geometry" />
        </mxCell>
        <mxCell id="t8I03dT7hKqpesx-KWNK-78" value="" style="ellipse;whiteSpace=wrap;html=1;aspect=fixed;gradientColor=#4D4D4D;fillColor=default;gradientDirection=radial;shadow=0;strokeColor=none;" vertex="1" parent="1">
          <mxGeometry x="176" y="180" width="30" height="30" as="geometry" />
        </mxCell>
        <mxCell id="t8I03dT7hKqpesx-KWNK-79" value="" style="ellipse;whiteSpace=wrap;html=1;aspect=fixed;gradientColor=#4D4D4D;fillColor=default;gradientDirection=radial;shadow=0;strokeColor=none;" vertex="1" parent="1">
          <mxGeometry x="453" y="240" width="30" height="30" as="geometry" />
        </mxCell>
        <mxCell id="t8I03dT7hKqpesx-KWNK-80" value="" style="ellipse;whiteSpace=wrap;html=1;aspect=fixed;gradientColor=#4D4D4D;fillColor=default;gradientDirection=radial;shadow=0;strokeColor=none;" vertex="1" parent="1">
          <mxGeometry x="453" y="180" width="30" height="30" as="geometry" />
        </mxCell>
        <mxCell id="t8I03dT7hKqpesx-KWNK-81" value="" style="ellipse;whiteSpace=wrap;html=1;aspect=fixed;gradientColor=#4D4D4D;fillColor=default;gradientDirection=radial;shadow=0;strokeColor=none;" vertex="1" parent="1">
          <mxGeometry x="360" y="260" width="30" height="30" as="geometry" />
        </mxCell>
        <mxCell id="t8I03dT7hKqpesx-KWNK-82" value="" style="ellipse;whiteSpace=wrap;html=1;aspect=fixed;gradientColor=#4D4D4D;fillColor=default;gradientDirection=radial;shadow=0;strokeColor=none;" vertex="1" parent="1">
          <mxGeometry x="360" y="200" width="30" height="30" as="geometry" />
        </mxCell>
        <mxCell id="t8I03dT7hKqpesx-KWNK-83" value="" style="ellipse;whiteSpace=wrap;html=1;aspect=fixed;gradientColor=#4D4D4D;fillColor=default;gradientDirection=radial;shadow=0;strokeColor=none;" vertex="1" parent="1">
          <mxGeometry x="360" y="140" width="30" height="30" as="geometry" />
        </mxCell>
        <mxCell id="t8I03dT7hKqpesx-KWNK-84" value="" style="ellipse;whiteSpace=wrap;html=1;aspect=fixed;gradientColor=#4D4D4D;fillColor=default;gradientDirection=radial;shadow=0;strokeColor=none;" vertex="1" parent="1">
          <mxGeometry x="270" y="240" width="30" height="30" as="geometry" />
        </mxCell>
        <mxCell id="t8I03dT7hKqpesx-KWNK-85" value="" style="ellipse;whiteSpace=wrap;html=1;aspect=fixed;gradientColor=#4D4D4D;fillColor=default;gradientDirection=radial;shadow=0;strokeColor=none;" vertex="1" parent="1">
          <mxGeometry x="270" y="180" width="30" height="30" as="geometry" />
        </mxCell>
        <mxCell id="t8I03dT7hKqpesx-KWNK-86" value="" style="ellipse;whiteSpace=wrap;html=1;aspect=fixed;gradientColor=#4D4D4D;fillColor=default;gradientDirection=radial;shadow=0;strokeColor=none;" vertex="1" parent="1">
          <mxGeometry x="176" y="240" width="30" height="30" as="geometry" />
        </mxCell>
        <mxCell id="t8I03dT7hKqpesx-KWNK-87" value="" style="endArrow=none;html=1;rounded=0;exitX=1;exitY=0;exitDx=0;exitDy=0;" edge="1" parent="1" source="t8I03dT7hKqpesx-KWNK-85">
          <mxGeometry width="50" height="50" relative="1" as="geometry">
            <mxPoint x="300" y="200" as="sourcePoint" />
            <mxPoint x="360" y="162" as="targetPoint" />
          </mxGeometry>
        </mxCell>
        <mxCell id="t8I03dT7hKqpesx-KWNK-88" value="" style="endArrow=none;html=1;rounded=0;entryX=0;entryY=0.667;entryDx=0;entryDy=0;exitX=1;exitY=0.333;exitDx=0;exitDy=0;exitPerimeter=0;entryPerimeter=0;" edge="1" parent="1" source="t8I03dT7hKqpesx-KWNK-84" target="t8I03dT7hKqpesx-KWNK-82">
          <mxGeometry width="50" height="50" relative="1" as="geometry">
            <mxPoint x="290" y="250" as="sourcePoint" />
            <mxPoint x="360" y="210" as="targetPoint" />
          </mxGeometry>
        </mxCell>
        <mxCell id="t8I03dT7hKqpesx-KWNK-89" value="" style="endArrow=none;html=1;rounded=0;entryX=0;entryY=0.5;entryDx=0;entryDy=0;exitX=1;exitY=0.5;exitDx=0;exitDy=0;" edge="1" parent="1" source="t8I03dT7hKqpesx-KWNK-84" target="t8I03dT7hKqpesx-KWNK-81">
          <mxGeometry width="50" height="50" relative="1" as="geometry">
            <mxPoint x="306" y="254" as="sourcePoint" />
            <mxPoint x="374" y="236" as="targetPoint" />
          </mxGeometry>
        </mxCell>
        <mxCell id="t8I03dT7hKqpesx-KWNK-90" value="" style="endArrow=none;html=1;rounded=0;entryX=0;entryY=0.5;entryDx=0;entryDy=0;exitX=1;exitY=0.5;exitDx=0;exitDy=0;" edge="1" parent="1" source="t8I03dT7hKqpesx-KWNK-85">
          <mxGeometry width="50" height="50" relative="1" as="geometry">
            <mxPoint x="290" y="200" as="sourcePoint" />
            <mxPoint x="360" y="214" as="targetPoint" />
          </mxGeometry>
        </mxCell>
        <mxCell id="t8I03dT7hKqpesx-KWNK-91" value="" style="endArrow=none;html=1;rounded=0;entryX=0;entryY=0;entryDx=0;entryDy=0;exitX=1;exitY=1;exitDx=0;exitDy=0;" edge="1" parent="1" source="t8I03dT7hKqpesx-KWNK-85" target="t8I03dT7hKqpesx-KWNK-81">
          <mxGeometry width="50" height="50" relative="1" as="geometry">
            <mxPoint x="300" y="210" as="sourcePoint" />
            <mxPoint x="350" y="224" as="targetPoint" />
          </mxGeometry>
        </mxCell>
        <mxCell id="t8I03dT7hKqpesx-KWNK-92" value="" style="endArrow=none;html=1;rounded=0;entryX=0;entryY=1;entryDx=0;entryDy=0;exitX=1;exitY=0;exitDx=0;exitDy=0;" edge="1" parent="1" source="t8I03dT7hKqpesx-KWNK-84" target="t8I03dT7hKqpesx-KWNK-83">
          <mxGeometry width="50" height="50" relative="1" as="geometry">
            <mxPoint x="290" y="250" as="sourcePoint" />
            <mxPoint x="354" y="211" as="targetPoint" />
          </mxGeometry>
        </mxCell>
        <mxCell id="t8I03dT7hKqpesx-KWNK-93" value="&lt;font style=&quot;font-size: 24px;&quot;&gt;&lt;b&gt;...&lt;/b&gt;&lt;/font&gt;" style="text;html=1;align=center;verticalAlign=middle;whiteSpace=wrap;rounded=0;" vertex="1" parent="1">
          <mxGeometry x="217" y="201" width="40" height="30" as="geometry" />
        </mxCell>
        <mxCell id="t8I03dT7hKqpesx-KWNK-94" value="&lt;font style=&quot;font-size: 24px;&quot;&gt;&lt;b&gt;...&lt;/b&gt;&lt;/font&gt;" style="text;html=1;align=center;verticalAlign=middle;whiteSpace=wrap;rounded=0;" vertex="1" parent="1">
          <mxGeometry x="406" y="200" width="40" height="30" as="geometry" />
        </mxCell>
      </root>
    </mxGraphModel>
  </diagram>
</mxfile>
